<?xml version="1.0" encoding="UTF-8" standalone="no"?>
<!DOCTYPE svg PUBLIC "-//W3C//DTD SVG 1.1//EN"
 "http://www.w3.org/Graphics/SVG/1.1/DTD/svg11.dtd">
<!-- Generated by graphviz version 2.43.0 (0)
 -->
<!-- Title: Database_Diagram Pages: 1 -->
<svg width="439pt" height="270pt"
 viewBox="0.00 0.00 439.00 270.00" xmlns="http://www.w3.org/2000/svg" xmlns:xlink="http://www.w3.org/1999/xlink">
<g id="graph0" class="graph" transform="scale(1 1) rotate(0) translate(108 162)">
<title>Database_Diagram</title>
<polygon fill="white" stroke="transparent" points="-108,108 -108,-162 331,-162 331,108 -108,108"/>
<!-- sortedSection -->
<g id="node1" class="node">
<title>sortedSection</title>
<polygon fill="#f2f2f2" stroke="transparent" points="102,-54 0,-54 0,0 102,0 102,-54"/>
<polygon fill="none" stroke="black" points="0,-29 0,-54 102,-54 102,-29 0,-29"/>
<text text-anchor="start" x="5" y="-38.8" font-family="Helvetica,Arial,sans-serif" font-weight="bold" font-size="14.00">sortedSection</text>
<polygon fill="none" stroke="black" points="0,0 0,-29 102,-29 102,0 0,0"/>
<text text-anchor="start" x="7" y="-10.8" font-family="Helvetica,Arial,sans-serif" font-size="14.00">idPage</text>
</g>
<!-- sortedPage -->
<g id="node2" class="node">
<title>sortedPage</title>
<polygon fill="#f2f2f2" stroke="transparent" points="223,-54 138,-54 138,0 223,0 223,-54"/>
<polygon fill="none" stroke="black" points="138.5,-29 138.5,-54 223.5,-54 223.5,-29 138.5,-29"/>
<text text-anchor="start" x="143.5" y="-38.8" font-family="Helvetica,Arial,sans-serif" font-weight="bold" font-size="14.00">sortedPage</text>
<polygon fill="none" stroke="black" points="138.5,0 138.5,-29 223.5,-29 223.5,0 138.5,0"/>
<text text-anchor="start" x="145.5" y="-10.8" font-family="Helvetica,Arial,sans-serif" font-size="14.00">id</text>
</g>
<!-- sortedSection&#45;&gt;sortedPage -->
<g id="edge1" class="edge">
<title>sortedSection:idPage&#45;&gt;sortedPage:id</title>
<path fill="none" stroke="black" d="M108.32,-14C115.51,-14 125.06,-14 132.23,-14"/>
<polygon fill="black" stroke="black" points="108,-10.5 98,-14 108,-17.5 108,-10.5"/>
<polygon fill="black" stroke="black" points="132.5,-17.5 142.5,-14 132.5,-10.5 132.5,-17.5"/>
</g>
</g>
</svg>
